<?xml version="1.0" encoding="UTF-8" standalone="no"?>
<!-- Created with Inkscape (http://www.inkscape.org/) -->
<svg
   xmlns:dc="http://purl.org/dc/elements/1.1/"
   xmlns:cc="http://web.resource.org/cc/"
   xmlns:rdf="http://www.w3.org/1999/02/22-rdf-syntax-ns#"
   xmlns:svg="http://www.w3.org/2000/svg"
   xmlns="http://www.w3.org/2000/svg"
   xmlns:sodipodi="http://sodipodi.sourceforge.net/DTD/sodipodi-0.dtd"
   xmlns:inkscape="http://www.inkscape.org/namespaces/inkscape"
   width="1052.3622"
   height="580"
   id="svg2"
   sodipodi:version="0.32"
   inkscape:version="0.45.1"
   version="1.0"
   sodipodi:docbase="C:\Documents and Settings\Family\Desktop"
   sodipodi:docname="Continents.svg"
   inkscape:output_extension="org.inkscape.output.svg.inkscape"
   inkscape:export-filename="C:\Documents and Settings\Family\Desktop\molumen_world_map_1.png"
   inkscape:export-xdpi="300"
   inkscape:export-ydpi="300">
  <defs
     id="defs4" />
  <sodipodi:namedview
     id="base"
     pagecolor="#ffffff"
     bordercolor="#666666"
     borderopacity="1.0"
     inkscape:pageopacity="0.0"
     inkscape:pageshadow="2"
     inkscape:zoom="1.1345973"
     inkscape:cx="530.48284"
     inkscape:cy="298.37598"
     inkscape:document-units="px"
     inkscape:current-layer="layer1"
     inkscape:window-width="1232"
     inkscape:window-height="1008"
     inkscape:window-x="40"
     inkscape:window-y="0"
     height="580px"
     width="1052.3622px" />
  <metadata
     id="metadata7">
    <rdf:RDF>
      <cc:Work
         rdf:about="">
        <dc:format>image/svg+xml</dc:format>
        <dc:type
           rdf:resource="http://purl.org/dc/dcmitype/StillImage" />
        <dc:title>World map</dc:title>
        <dc:date>27 11 2005</dc:date>
        <dc:creator>
          <cc:Agent>
            <dc:title>Lumen Design Studio</dc:title>
          </cc:Agent>
        </dc:creator>
        <dc:subject>
          <rdf:Bag>
            <rdf:li>world</rdf:li>
            <rdf:li>map</rdf:li>
            <rdf:li>continent</rdf:li>
            <rdf:li>continents</rdf:li>
            <rdf:li>countries</rdf:li>
            <rdf:li>country</rdf:li>
            <rdf:li>geography</rdf:li>
            <rdf:li>planet</rdf:li>
            <rdf:li>earth</rdf:li>
            <rdf:li>africa</rdf:li>
            <rdf:li>asia</rdf:li>
            <rdf:li>europe</rdf:li>
            <rdf:li>australia</rdf:li>
            <rdf:li>america</rdf:li>
            <rdf:li>americas</rdf:li>
            <rdf:li />
          </rdf:Bag>
        </dc:subject>
        <cc:license
           rdf:resource="http://web.resource.org/cc/PublicDomain" />
        <dc:description>World map</dc:description>
      </cc:Work>
      <cc:License
         rdf:about="http://web.resource.org/cc/PublicDomain">
        <cc:permits
           rdf:resource="http://web.resource.org/cc/Reproduction" />
        <cc:permits
           rdf:resource="http://web.resource.org/cc/Distribution" />
        <cc:permits
           rdf:resource="http://web.resource.org/cc/DerivativeWorks" />
      </cc:License>
    </rdf:RDF>
  </metadata>
  <g
     inkscape:label="Layer 1"
     inkscape:groupmode="layer"
     id="layer1">
    <path
       style="fill:#ff0000;fill-opacity:1;stroke:#000000;stroke-opacity:1"
       d="M 279.41253,13.029473 C 278.75002,13.070713 278.29837,13.204773 278.18327,13.391013 C 277.87633,13.887663 276.62569,14.010403 275.36319,13.680253 C 274.10069,13.350083 272.14769,13.479233 271.02461,13.969493 C 269.90154,14.459753 268.38521,14.768073 267.66221,14.656433 C 266.42058,14.464733 264.67147,17.178716 264.40828,19.718116 C 264.34231,20.354496 262.0912,20.717226 259.38276,20.513526 C 255.77464,20.242156 254.5232,20.551366 254.75494,21.670476 C 254.96297,22.675036 253.81138,23.216026 251.35638,23.261286 C 249.3035,23.299146 247.27643,23.689606 246.83703,24.129006 C 246.39764,24.568406 244.16399,24.985266 241.88382,25.069026 L 237.72601,25.213646 L 241.77535,25.936746 C 244.00249,26.330216 245.56438,27.026416 245.24622,27.491406 C 244.92806,27.956396 245.84797,29.181046 247.30704,30.203016 C 249.34785,31.632456 250.33337,31.774386 251.57331,30.745336 C 252.65262,29.849586 253.89193,29.753716 255.29726,30.492256 C 260.69524,33.329026 266.53662,33.209036 272.32618,30.130706 C 276.30319,28.016106 278.37068,27.498036 279.23176,28.359116 C 281.09084,30.218186 278.08491,32.388766 270.12074,35.011606 C 265.03112,36.687766 262.50823,36.998546 260.64817,36.168566 C 257.94623,34.962926 254.50185,35.716056 254.50185,37.506286 C 254.50185,39.338406 262.74146,43.558366 264.9506,42.857206 C 267.66272,41.996416 268.83614,43.928996 266.68603,45.713436 C 264.30574,47.688906 252.76642,45.802686 252.76642,43.435686 C 252.76642,42.487176 251.86482,41.030716 250.77791,40.217906 C 249.69101,39.405076 249.10676,37.963216 249.47633,37.000126 C 249.84591,36.037026 249.70625,35.354576 249.15094,35.481616 C 247.96071,35.753906 244.22909,34.478996 241.77535,32.950786 C 238.33258,30.806606 237.11847,30.463436 235.15902,31.215346 C 233.45239,31.870256 233.41091,32.136646 234.86978,33.059246 C 236.56115,34.128876 236.24943,34.328546 232.23048,34.650056 C 231.43507,34.713696 230.17512,35.524586 229.44656,36.457796 C 227.77197,38.602816 230.58612,41.005566 234.83363,41.085616 C 236.42444,41.115586 238.50696,41.671186 239.46145,42.278726 C 240.81874,43.142646 240.37066,43.545846 237.32831,44.158776 C 234.20194,44.788626 233.78496,45.152776 235.30364,46.002676 C 236.34291,46.584286 236.902,47.538586 236.5329,48.135806 C 236.15858,48.741476 237.84592,49.220456 240.36532,49.220456 C 243.41013,49.220466 245.57253,48.463626 246.98165,46.906546 C 248.5857,45.134096 249.42649,44.892656 250.63329,45.894206 C 251.49826,46.612076 253.77482,48.046056 255.69496,49.075836 C 257.61511,50.105626 259.28717,51.476516 259.38276,52.112836 C 259.67615,54.065896 255.77913,54.113216 253.85107,52.185146 C 252.85013,51.184196 252.55606,50.377406 253.20028,50.377406 C 253.84452,50.377416 254.68706,50.898036 255.08033,51.534366 C 255.4736,52.170696 256.66111,52.691316 257.71963,52.691316 C 259.20544,52.691326 259.02572,52.257886 256.96038,50.811266 C 254.75089,49.263666 253.76903,49.192556 251.24792,50.341256 C 248.51132,51.588116 248.38509,51.856736 250.19943,52.872096 C 252.32015,54.058886 251.87819,56.192596 249.51249,56.162186 C 248.68456,56.151536 248.83128,55.679106 249.87404,55.005226 C 250.82852,54.388396 251.08884,53.884426 250.45251,53.884426 C 248.5543,53.884426 245.83115,55.987866 246.65626,56.812966 C 247.07731,57.234006 251.95388,57.759966 257.5027,58.006076 C 263.0515,58.252186 267.8826,58.732626 268.20453,59.054566 C 269.02995,59.879986 269.48702,59.821846 273.80853,58.259166 C 277.79017,56.819386 279.20939,54.815406 275.58012,55.764476 C 272.70879,56.515356 266.9289,54.120366 267.87914,52.582856 C 268.30556,51.892896 269.90676,51.651076 271.45847,52.040536 C 273.12834,52.459646 275.80465,51.957876 278.00249,50.811266 C 280.04221,49.747156 282.4368,48.531976 283.35341,48.099656 C 284.27005,47.667356 285.24278,46.625496 285.5227,45.785746 C 285.89166,44.678826 285.25441,44.467846 283.17263,44.990336 C 281.59332,45.386726 279.96426,45.361296 279.55715,44.954186 C 278.24369,43.640726 281.3174,41.121776 284.22112,41.121776 C 285.77158,41.121786 286.72035,40.629476 286.35426,40.037126 C 285.1732,38.126136 287.62511,37.702386 291.41593,39.133256 C 294.45571,40.280646 295.27683,40.238076 296.11606,38.880176 C 296.67676,37.972956 301.22473,35.236696 306.20326,32.842316 C 311.18178,30.447926 314.64759,28.497926 313.90424,28.467586 C 313.16087,28.437236 311.59898,28.086516 310.43337,27.708336 C 308.85973,27.197766 308.69826,27.314966 309.85489,28.142186 C 311.04444,28.992936 310.58257,29.545386 307.86638,30.492256 C 304.14383,31.789956 302.07692,30.645356 304.54014,28.648356 C 305.32852,28.009176 308.32916,26.719456 311.19262,25.755976 C 318.10569,23.429896 322.76217,21.256316 322.76217,20.368906 C 322.76217,19.971916 321.33044,18.804766 319.58054,17.801906 C 317.27655,16.481486 315.44149,16.253496 312.92806,16.970346 C 309.10135,18.061726 306.03892,17.447136 307.07097,15.777236 C 308.05501,14.185023 302.17232,13.240143 295.35681,13.897183 C 292.05716,14.215293 286.99288,14.008163 284.0765,13.463323 C 282.6183,13.190913 281.19786,13.045353 280.13563,13.029473 C 279.87007,13.025503 279.63337,13.015723 279.41253,13.029473 z "
       id="path3726" />
    <path
       style="fill:#ff0000;fill-opacity:1;stroke:#000000;stroke-opacity:1"
       d="M 389.43167,13.029473 C 386.33787,13.061663 384.12702,13.650693 384.65923,14.511813 C 385.99083,16.666406 382.02907,17.003296 378.25983,15.054143 C 375.44555,13.598833 373.88398,13.405843 371.93273,14.294893 C 370.15084,15.106773 368.9404,15.098813 368.10032,14.258733 C 366.49268,12.651073 363.25558,13.959333 363.25558,16.211096 C 363.25558,18.540626 365.13586,18.493666 366.0395,16.138786 C 366.64957,14.548933 367.13733,14.651573 369.54652,16.970346 C 371.43841,18.791226 371.99128,20.121426 371.24579,21.019686 C 370.29385,22.166736 364.4475,22.333196 358.62776,21.381236 C 354.26319,20.667316 350.61103,21.503966 351.21602,23.080516 C 352.1172,25.428956 349.89437,26.369236 348.21517,24.345936 C 346.48757,22.264286 344.63386,22.068846 345.03354,24.020536 C 345.24167,25.036846 343.37604,25.350936 338.38105,25.105186 C 331.77545,24.780176 324.08673,27.008216 325.83533,28.756826 C 326.9903,29.911786 323.7108,33.194586 322.03907,32.553076 C 321.20692,32.233746 320.2287,32.442346 319.86978,33.023096 C 319.51086,33.603846 318.56515,33.833316 317.7728,33.529256 C 315.87824,32.802256 307.05997,37.089506 308.55332,38.012456 C 309.18644,38.403766 311.33478,38.258066 313.32576,37.687066 C 318.09344,36.319706 318.90663,37.872666 315.67582,42.242576 C 313.88872,44.659726 312.09342,45.749596 309.89105,45.749596 C 308.1393,45.749606 306.38601,46.295996 305.98633,46.942696 C 305.58664,47.589406 304.74723,47.786506 304.14243,47.412716 C 302.69634,46.518966 294.99526,49.074826 294.99526,50.449716 C 294.99526,51.523686 296.39685,51.777116 304.72091,52.004376 C 307.2167,52.072496 309.48031,52.762636 309.74643,53.559036 C 310.28003,55.155816 309.32392,55.577366 302.51546,56.812966 C 298.35812,57.567456 298.1817,57.731246 300.78003,58.403776 C 302.37085,58.815536 303.4121,59.595706 303.09394,60.139216 C 302.23045,61.614296 306.80064,62.914006 309.45719,61.946956 C 310.72984,61.483686 315.90293,61.022436 320.95443,60.898466 C 326.00593,60.774506 330.55237,60.405426 331.04162,60.103056 C 331.53087,59.800696 332.65603,61.006316 333.57246,62.778516 C 334.48892,64.550726 336.35631,66.991046 337.69411,68.201736 C 339.03191,69.412436 340.11649,71.023826 340.11649,71.781066 C 340.11649,72.538316 341.11147,74.048016 342.32193,75.143466 C 343.85388,76.529856 344.35737,78.168176 343.98505,80.530536 C 343.36993,84.433546 345.31552,85.195126 346.29896,81.434406 C 346.83023,79.402876 347.25891,79.189916 348.61287,80.313606 C 352.56271,83.591676 351.55439,87.634926 346.47974,88.882296 C 344.89234,89.272486 345.28865,89.477176 347.74515,89.569246 C 349.71459,89.643056 352.18242,90.677626 353.24069,91.846996 C 355.04161,93.837016 355.04362,94.118286 352.87914,96.077116 C 350.69998,98.049236 350.65597,98.226156 352.55375,99.620286 C 354.40035,100.97683 354.31412,101.21805 351.39679,102.3319 C 349.6469,103.00001 348.21517,104.13276 348.21517,104.86274 C 348.21517,105.82861 348.6884,105.80795 349.91444,104.79043 C 352.60233,102.55967 354.50177,104.58464 352.15604,107.17665 C 351.06147,108.38612 350.64016,109.39801 351.21602,109.41825 C 351.79189,109.4385 351.31917,110.17206 350.16753,111.04521 C 348.81876,112.06783 348.53398,112.89962 349.33597,113.39528 C 350.02077,113.8185 350.22052,114.77697 349.76982,115.52841 C 349.24552,116.40261 349.59555,116.3451 350.78216,115.38379 C 352.88258,113.68224 354.35186,115.04789 352.91529,117.37231 C 352.31571,118.34247 353.14293,120.6617 355.19305,123.6994 C 359.68216,130.351 362.8627,133.00168 366.50951,133.0635 C 368.22474,133.09259 369.6839,133.75045 369.76344,134.54585 C 369.84298,135.34127 369.97314,136.28869 370.05268,136.64283 C 370.35996,138.0109 377.16255,133.07912 377.28365,131.40038 C 377.35408,130.42402 377.31935,128.50507 377.21134,127.13411 C 377.10333,125.76316 377.54977,124.29668 378.22367,123.88018 C 378.89758,123.46369 379.45294,122.16881 379.45294,120.98779 C 379.45294,118.4975 389.62495,109.10738 391.23941,110.10519 C 391.83644,110.47418 393.82546,110.13796 395.6503,109.38209 C 398.92329,108.02638 400.52948,105.83374 400.74813,102.44036 C 400.80962,101.48589 401.50738,100.83509 402.30279,100.99417 C 403.0982,101.15326 404.77709,100.25531 406.02674,99.005656 C 407.83852,97.193886 409.78819,96.773356 415.60777,96.872516 C 420.09422,96.948966 424.22771,96.292746 426.34575,95.209396 C 428.24085,94.240136 431.60266,93.038056 433.8298,92.533936 L 437.87914,91.630066 L 433.8298,90.726196 C 431.60265,90.237096 428.68424,90.141306 427.32193,90.473116 C 424.39806,91.185216 422.45364,88.855656 425.11649,87.833806 C 426.12258,87.447756 426.80529,86.271816 426.63499,85.230666 C 426.42001,83.917316 427.33275,83.248816 429.59968,82.989066 C 432.10879,82.701596 432.98649,83.171636 433.46825,85.013736 C 434.23507,87.946426 437.30066,88.204796 437.30066,85.339126 C 437.30065,82.642576 431.01967,78.935626 428.04503,79.879746 C 424.89255,80.880276 422.94407,79.537396 424.61032,77.529686 C 425.59859,76.338836 425.31132,75.703966 423.45336,74.709606 C 420.14922,72.941286 421.73546,70.903466 425.73112,71.781066 C 428.37048,72.360756 428.94404,72.120926 428.80428,70.443336 C 428.55969,67.507846 432.56461,67.745516 436.54141,70.913356 C 438.34013,72.346166 440.66428,73.516496 441.71155,73.516496 C 443.18725,73.516506 443.03239,73.115036 441.02461,71.708756 C 437.73644,69.405586 438.71435,67.731726 443.37467,67.731726 C 446.80932,67.731736 446.87712,67.642466 444.74856,66.032446 C 443.51338,65.098206 443.02759,64.247916 443.66391,64.152396 C 444.30023,64.056866 443.29519,63.650486 441.42231,63.248526 C 436.99383,62.298126 436.9545,60.428326 441.35,59.488426 L 444.82087,58.765326 L 441.13307,58.620706 C 439.1025,58.545406 437.1318,57.995846 436.75834,57.391446 C 435.62417,55.556346 440.332,53.810986 444.3147,54.607526 C 447.10815,55.166216 447.85914,55.011736 447.20709,53.956736 C 446.72625,53.178756 446.06292,52.823206 445.72474,53.161326 C 444.5944,54.291766 440.58346,51.361556 441.16923,49.835086 C 441.48693,49.006936 441.17253,47.777536 440.48229,47.087316 C 439.58031,46.185356 440.112,45.506796 442.32618,44.664946 C 444.02066,44.020726 445.39934,42.711176 445.39934,41.772556 C 445.39933,40.833946 446.31045,39.515976 447.42401,38.807866 C 449.13664,37.718776 448.99394,37.587626 446.44783,38.120926 C 442.84287,38.876016 441.46038,37.867066 443.23005,35.734706 C 443.94886,34.868516 446.76779,34.180046 449.5933,34.180046 C 452.97866,34.180056 454.55907,33.718326 454.36574,32.770006 C 454.20665,31.989716 455.2673,31.146756 456.7158,30.926116 C 458.16431,30.705466 460.69417,29.853276 462.3198,29.009906 L 465.24834,27.491406 L 460.62053,26.695996 C 458.0713,26.265296 455.05696,26.401956 453.89573,27.021386 C 450.96053,28.587166 446.2762,29.083476 444.53163,27.997566 C 443.72478,27.495326 441.51765,27.843606 439.61457,28.792976 C 436.23314,30.479856 434.09272,29.643266 435.60139,27.202166 C 436.10302,26.390376 433.56445,26.097976 427.86425,26.370606 C 421.66852,26.666946 417.4211,27.681526 412.17306,30.058396 C 408.04323,31.928796 404.15743,32.987296 403.02589,32.553076 C 400.17308,31.458356 401.94613,30.181246 412.02844,26.153676 C 417.75473,23.866186 422.9601,22.610506 426.67114,22.610506 C 429.83287,22.610516 434.14715,21.818296 436.28833,20.838916 L 440.19305,19.067326 L 433.64902,19.754266 C 426.80112,20.479886 424.07419,19.125396 427.71963,16.825726 C 430.03101,15.367686 419.01567,15.944176 406.71368,17.910376 C 402.93217,18.514756 399.3649,18.695966 398.79577,18.344236 C 397.07316,17.279586 399.86834,15.390846 404.54439,14.439503 C 408.56207,13.622093 408.35586,13.538653 402.01355,13.499483 C 398.1956,13.475883 394.03056,13.349463 392.75791,13.210243 C 391.6003,13.083613 390.46293,13.018733 389.43167,13.029473 z "
       id="path3724" />
    <path
       style="fill:#ff0000;fill-opacity:1;stroke:#000000;stroke-opacity:1"
       d="M 331.2224,26.262136 C 332.79908,26.272336 334.41206,27.329256 333.75324,28.395276 C 332.84896,29.858396 330.04461,29.896366 329.16157,28.467586 C 328.79548,27.875226 329.06287,27.042206 329.74005,26.623686 C 330.16811,26.359126 330.69684,26.258736 331.2224,26.262136 z "
       id="path3712" />
    <path
       style="fill:#0000ff;fill-opacity:1"
       d="M 793.46875,50.96875 C 787.43262,66.402358 766.44509,60.132537 750.47281,64.62116 C 736.56684,65.359277 752.55514,79.173723 735.21875,73.03125 C 715.75071,68.303325 746.19628,93.758179 731.96875,86.0625 C 730.00133,77.941933 707.44243,77.192796 721.13084,86.510899 C 712.92188,84.384718 707.11866,71.362865 708.42219,87.952406 C 708.02848,93.436502 731.03688,102.60891 719.70556,104.82213 C 714.25753,82.781966 700.71538,122.6588 694.74124,105.03866 C 710.14613,114.24486 708.00871,65.434919 695.15625,79.21875 C 681.2107,84.599553 705.34479,105.37363 685.64184,94.991128 C 676.18624,89.637954 666.39329,101.20717 664.71875,96.15625 C 652.66242,101.4204 642.05495,97.421298 629.7825,106.68561 C 632.53121,101.54049 620.46625,93.275771 625.40156,106.49352 C 619.38061,109.61915 611.28253,118.83272 604.24542,115.4798 C 612.10034,131.69639 579.12253,97.5909 601.59758,108.53302 C 631.23173,111.2133 597.17531,88.573286 584.97145,92.857722 C 581.978,89.64339 587.44422,88.025905 577.73844,86.670475 C 574.68373,91.078507 570.11798,81.261008 565.98753,89.561698 C 559.35774,89.11914 556.02198,93.866631 548.15625,95.8125 C 545.83238,104.42572 534.87703,108.64817 529.02186,114.49289 C 537.45211,126.72607 507.15714,122.39036 516.84375,141.1875 C 521.23354,150.94304 534.69425,129.70598 534.5,150.46875 C 540.05014,165.20561 557.07803,141.39121 548.96816,133.71228 C 551.16064,124.75109 561.47146,109.90597 570.34375,112.28125 C 566.28416,118.7766 551.49435,143.39998 572.8269,135.21096 C 591.30065,133.74224 578.60083,142.59557 567.57097,141.20447 C 570.21126,150.79288 567.51406,150.74147 560.52831,151.62092 C 559.13372,164.78238 532.91558,168.78642 527.03125,158.03125 C 525.49171,141.76678 528.38824,172.56258 516.15625,167.625 C 508.81976,174.38082 498.4971,184.77325 487.85932,186.09355 C 496.48655,191.06963 500.53029,213.97305 481.59345,206.08578 C 462.93176,206.19489 476.03165,243.52882 493.48669,228.29704 C 500.93597,217.00365 516.73159,193.07274 531.20739,209.56017 C 541.22518,211.28813 547.59215,235.66032 547.74826,217.51247 C 553.2582,222.71588 520.94153,191.54893 540.31143,199.46639 C 550.90007,205.58108 561.87268,230.78556 564.09375,224 C 563.09073,228.60529 558.86495,233.76676 567.88039,226.02355 C 555.31751,212.58472 586.2426,220.5242 580.37803,203.41813 C 586.35073,189.41832 592.63395,195.55447 599.24144,200.25365 C 591.71316,192.45446 615.03751,187.99117 606.3676,199.84946 C 620.71561,205.4855 617.70375,221.73506 601.34375,213.15625 C 590.16189,207.24771 563.37331,221.95272 582.28125,231.40625 C 596.31263,228.19239 607.01175,231.64668 597.27297,247.7093 C 588.98047,257.70353 550.7429,256.41373 556.70972,274.55523 C 574.78239,280.51824 590.32591,252.47648 599.375,260.9375 C 607.33328,278.50294 618.31252,293.36094 622.67791,312.84785 C 639.17704,310.31533 660.38965,299.51806 667.92595,282.83216 C 659.9792,277.1791 659.37283,264.50883 650.7961,276.58245 C 638.26714,281.43 628.64948,238.95883 646.27197,262.03512 C 660.38345,273.43587 688.35609,267.50836 697.0625,282.5 C 695.72263,292.5013 707.33936,274.56741 704.5,289.0625 C 704.89583,300.60688 712.17385,326.41971 719.77165,328.26311 C 721.6992,307.84941 734.80425,288.91124 754.4375,282.25 C 766.99115,283.97589 762.33573,309.90375 774.93917,302.22403 C 775.45694,323.65337 780.82378,316.71263 791.34375,318.46875 C 792.49096,333.99462 808.70013,324.46314 807.27764,314.26865 C 804.32918,303.14471 790.86955,282.74445 810.25,285.84375 C 823.30801,283.02918 846.92553,268.58887 839.99195,254.86582 C 847.04958,250.51558 828.19953,234.46404 846.10387,229.05302 C 846.36721,229.59621 820.98263,227.52926 837.40106,218.81057 C 850.99584,208.26908 836.97977,231.04022 847.821,219.41285 C 858.52825,217.66663 856.39086,250.19547 864.32332,231.80989 C 854.46896,221.96678 866.46136,206.13814 876.83173,207.23154 C 890.1071,202.36811 910.89269,162.03543 887.48462,164.11413 C 875.29373,153.23964 906.84277,135.36525 919.45363,140.18787 C 933.62744,144.02576 938.02651,136.61235 949.46875,129.28125 C 958.34091,129.11491 947.22668,141.07822 959.84541,130.90685 C 972.51649,118.65827 951.73126,145.51557 944.6875,147.5625 C 935.49954,153.88311 938.81993,186.29492 950.43428,166.87411 C 953.43314,157.54603 962.96591,154.75534 957.84435,143.72874 C 967.14019,128.90085 986.26515,139.02636 999.35153,126.90453 C 1017.3673,129.58628 985.08364,108.64615 1007.1006,115.46015 C 1009.6071,97.541291 1027.9711,128.62733 1031.9938,112.38384 C 1044.9939,104.86317 1021.6925,107.88456 1022.7188,105.90625 C 1011.8724,90.145831 983.16406,89.28026 976.21875,95.71875 C 957.303,95.361072 946.62634,84.786599 928.34375,85.84375 C 922.88275,80.035382 917.12536,79.270388 909.92278,82.235684 C 915.38546,74.658704 891.99342,76.80929 893.53125,84.5 C 881.54612,82.431232 860.82047,92.247286 861.96875,77 C 860.218,68.060781 838.72764,79.680722 829.77992,72.335759 C 820.90446,79.363578 816.27261,61.255377 812.15625,68.8125 C 827.80901,75.676265 806.09093,66.04371 811.5625,74.09375 C 788.44757,81.938556 809.06409,65.779829 819.39453,63.629639 C 822.91681,50.88417 791.92036,62.784637 795.125,51.125 L 793.46875,50.96875 z M 646.75,193.21875 C 652.71631,197.97831 635.17372,202.29275 647.03125,210.5 C 647.77349,216.3474 656.52024,211.52946 648.60733,218.05428 C 662.43048,236.37737 628.30793,232.05802 640.28125,215.0625 C 633.03785,206.76171 631.49665,192.89965 646.75,193.21875 z M 670.03125,196.15625 C 674.91423,207.89052 658.16395,203.83937 670.03125,196.15625 z "
       id="path3644"
       sodipodi:nodetypes="cccccccccccccccccccccccccccccccccccccccccccccccccccccccccccccccccccccccccccccccccccccccccccc" />
    <path
       style="fill:#ff0000;fill-opacity:1;stroke:#000000;stroke-opacity:1"
       d="M 226.48186,56.306796 C 225.70255,56.310076 225.53887,56.649966 225.79492,57.427596 C 226.09758,58.346846 228.51705,59.302746 231.43507,59.633046 C 235.74768,60.121206 236.65436,60.663116 237.14754,63.103906 C 237.71145,65.894886 238.79873,66.435696 244.84851,66.936316 C 246.22743,67.050426 247.78933,67.593346 248.31938,68.129426 C 248.84941,68.665526 252.93997,68.812456 257.39424,68.454826 C 261.84851,68.097186 267.21972,67.787246 269.32533,67.767886 C 271.68319,67.746186 272.85816,67.282396 272.39849,66.538616 C 271.98798,65.874426 272.34371,64.442686 273.1939,63.356996 C 274.53011,61.650646 274.51327,61.544396 273.01313,62.706206 C 272.05864,63.445426 269.97612,64.027436 268.38531,64.007776 C 266.7945,63.988096 261.06659,64.245016 255.65881,64.550106 C 245.56992,65.119266 240.6184,63.691406 240.6184,60.211526 C 240.6184,59.379496 238.71747,58.455486 236.27982,58.114546 C 233.8936,57.780796 230.44794,57.127826 228.615,56.668346 C 227.64916,56.426246 226.94945,56.304836 226.48186,56.306796 z "
       id="path3622" />
    <path
       style="fill:#ff0000;fill-opacity:1;stroke:#000000;stroke-opacity:1"
       d="M 252.73027,73.516496 C 249.25587,73.516506 244.08926,77.771706 244.08926,80.638996 C 244.08926,83.928686 247.71459,89.700566 249.83788,89.786176 C 250.81425,89.825546 256.81576,90.028846 263.17901,90.220026 C 271.22011,90.461626 276.15994,91.193436 279.37638,92.642406 C 281.92168,93.789026 284.92885,94.811196 286.06502,94.920156 C 289.59176,95.258396 290.95093,97.446756 289.10202,99.801056 C 287.63224,101.67259 287.67297,101.71601 289.42742,100.34338 C 291.0853,99.046316 291.55355,99.166586 292.60904,101.13879 C 293.28974,102.41071 293.83831,104.17159 293.83831,105.07967 C 293.83831,106.19527 294.72334,106.5927 296.58607,106.23662 C 299.9624,105.59119 301.38212,107.44828 299.00845,109.41825 C 297.59328,110.59274 296.89005,110.50283 295.21219,108.98439 C 293.32848,107.27967 292.90995,107.294 290.54822,108.94823 C 288.49224,110.3883 288.24558,111.08959 289.31895,112.38294 C 290.06353,113.28009 290.19951,114.03342 289.64435,114.08222 C 289.08919,114.13102 286.31409,114.26118 283.46187,114.37146 C 279.54351,114.52296 278.15596,115.08324 277.85787,116.61306 C 277.57261,118.07706 278.22817,118.65054 280.17178,118.63773 C 281.65017,118.62799 283.54857,118.16625 284.4019,117.62539 C 286.07617,116.56422 294.99526,120.24513 294.99526,122.00013 C 294.99526,122.55262 296.38786,123.37701 298.10458,123.80787 C 300.47832,124.40363 300.86223,124.81362 299.62308,125.57945 C 298.49253,126.27816 299.07278,126.55346 301.53928,126.48333 C 303.49441,126.42775 307.12783,127.44097 309.60181,128.72492 C 315.44451,131.75715 315.38514,131.76916 312.8919,129.01416 C 310.80612,126.70942 310.79217,126.60968 313.07267,126.01331 C 316.77579,125.04493 315.62161,121.0935 309.96336,115.49226 C 305.04208,110.62054 304.91107,110.34364 307.07097,108.7313 C 310.10158,106.46901 310.40788,106.56611 314.69964,110.5752 C 317.60578,113.28994 318.78798,113.76233 320.0144,112.74449 C 320.88206,112.02439 321.29346,110.92918 320.91827,110.32212 C 320.54309,109.71506 321.32775,108.94288 322.68986,108.58669 C 324.99985,107.98261 325.03157,107.78728 323.26834,105.83892 C 322.22863,104.69005 320.75401,103.98657 319.97825,104.28426 C 319.20246,104.58193 317.60711,103.7716 316.43507,102.47652 C 315.25493,101.17249 312.84829,100.12646 311.048,100.12646 C 307.1577,100.12647 304.30741,96.213646 307.07097,94.667076 C 308.00081,94.146696 308.42323,93.210226 307.97484,92.570096 C 306.93732,91.088856 300.52708,88.069636 299.15307,88.412286 C 298.58088,88.554986 297.27931,88.337536 296.26068,87.942276 C 294.63621,87.311946 294.68855,87.041906 296.65838,85.592216 C 298.537,84.209626 298.59949,83.929086 297.01993,83.929086 C 295.98136,83.929096 294.81112,84.448006 294.41678,85.086046 C 293.97134,85.806776 292.95558,85.844356 291.74133,85.194506 C 290.66638,84.619226 289.26834,84.100306 288.63201,84.037556 C 287.99569,83.974796 287.47506,83.351296 287.47506,82.663666 C 287.47506,80.403586 283.5952,78.524516 280.02716,79.048186 C 278.10045,79.330966 276.78277,80.033286 277.13478,80.602846 C 278.17495,82.285866 274.28856,83.159946 272.4708,81.651336 C 271.5523,80.889026 270.30711,80.581076 269.68688,80.964396 C 268.11888,81.933486 266.64411,79.242276 267.04758,76.119646 C 267.31331,74.062976 266.81961,73.523586 264.69752,73.552656 C 263.22023,73.572916 261.24475,74.223686 260.28663,74.998846 C 258.27937,76.622816 257.67207,82.707546 259.31045,84.688336 C 260.0381,85.568086 259.93072,86.331666 259.02121,86.893786 C 256.90473,88.201836 254.49709,84.026686 254.68263,79.373576 L 254.82725,75.251926 L 255.55034,79.879746 C 256.16973,83.856856 256.36868,84.133146 257.03269,81.795956 C 258.12773,77.941766 255.83246,73.516496 252.73027,73.516496 z "
       id="path3562" />
    <path
       style="fill:#ff0000;fill-opacity:1;stroke:#000000;stroke-opacity:1"
       d="M 231.4375 83.625 C 231.00123 83.613449 230.61841 83.74034 230.25 83.9375 C 226.02169 86.200451 225.90626 92.03125 230.09375 92.03125 C 233.2394 92.031273 233.58598 93.00718 231.75 96.6875 C 229.55966 101.07809 228.46768 101.67376 225.6875 99.9375 C 223.957 98.856787 222.74022 98.8294 220.71875 99.8125 C 215.91702 102.14773 208.49281 102.58012 204.1875 100.78125 C 201.96212 99.851429 200.125 98.54379 200.125 97.875 C 200.12501 96.537879 194.48581 96.20526 191.4375 97.375 C 189.90027 97.964911 189.83148 98.34466 191.0625 99.125 C 191.91128 99.663033 193.38926 100.06624 194.34375 100.03125 C 195.48804 99.989336 195.27573 99.62437 193.75 98.96875 C 191.8637 98.158188 191.8114 97.94129 193.40625 97.875 C 196.39423 97.750809 197.22017 100.17857 194.4375 100.90625 C 192.63359 101.37799 192.08372 102.35209 192.3125 104.5 C 192.73251 108.44325 189.99449 109.15294 188.59375 105.46875 C 187.28561 102.02804 183.39991 100.72696 176.9375 101.59375 C 171.72678 102.29266 168.42045 99.96452 171.875 98.03125 C 173.67887 97.021734 173.65108 96.81407 171.3125 95.5625 C 169.39203 94.53469 168.3344 94.52223 167.15625 95.5 C 165.96002 96.492782 164.63149 96.33083 161.71875 94.8125 C 156.63058 92.160187 149.00703 90.78969 147.28125 92.21875 C 146.37204 92.971647 144.77511 92.74007 142.4375 91.53125 C 139.17585 89.84457 138.63933 89.87024 135.09375 92 C 125.75402 97.610191 122.30423 99.11673 121.25 98.0625 C 120.56674 97.379238 122.00053 95.85207 125.125 93.96875 C 127.86876 92.314893 129.49878 90.93108 128.71875 90.90625 C 127.93872 90.881419 125.64348 91.90974 123.59375 93.15625 C 120.60341 94.974789 119.50419 95.15353 118.0625 94.03125 C 116.55731 92.859507 116.48733 92.88989 117.5625 94.34375 C 119.14572 96.484631 120.45962 103.07162 119.5 104.03125 C 118.22957 105.30168 115.65625 102.21802 115.65625 99.40625 C 115.65625 97.893348 115.28974 96.64244 114.8125 96.59375 C 112.87112 96.395711 110.21348 95.61791 105.40625 93.875 C 102.62188 92.86549 99.129505 92.03125 97.65625 92.03125 C 96.182996 92.031273 94.694701 91.53662 94.34375 90.96875 C 93.992785 90.400907 90.587549 89.89777 86.75 89.84375 C 82.912426 89.789731 78.695306 89.23565 77.4375 88.5625 C 75.877151 87.727428 74.464623 87.69944 72.96875 88.5 C 71.340929 89.37119 70.429391 89.20796 69.375 87.9375 C 68.593937 86.99639 66.481011 86.25 64.6875 86.25 C 62.894004 86.25001 61.099873 85.66723 60.6875 85 C 60.168931 84.160943 59.464077 84.21584 58.40625 85.09375 C 57.361034 85.961212 56.631955 85.97653 56.125 85.15625 C 55.642608 84.37572 54.372937 84.60579 52.53125 85.8125 C 50.97363 86.833111 49.728491 87.23793 49.71875 86.6875 C 49.709007 86.137059 49.204588 86.3965 48.625 87.3125 C 48.04541 88.228502 46.1699 89.2055 44.4375 89.4375 C 42.705113 89.669487 40.281848 91.12886 39.03125 92.71875 C 37.780644 94.308632 36.451295 95.35753 36.125 95.03125 C 35.798699 94.704951 34.049272 95.20966 32.21875 96.15625 L 28.90625 97.875 L 32.65625 101.09375 C 36.226379 104.17042 39.748893 106.15408 42.09375 106.375 C 44.172219 106.57084 44.025894 109.25512 41.875 110.40625 C 40.304987 111.24649 38.828164 111.11295 36.5625 109.9375 C 34.497362 108.8661 32.716941 108.66384 31.4375 109.34375 C 30.361652 109.91546 28.4289 110.7279 27.15625 111.15625 C 24.916367 111.91015 24.93628 111.97272 27.4375 112.9375 C 28.985735 113.53469 29.779252 114.55923 29.40625 115.53125 C 28.446703 118.03177 39.350845 119.0513 41.125 116.625 C 42.842869 114.27569 44.743955 115.50121 44.5 118.8125 C 44.314365 121.3323 38.533052 125.82057 36.75 124.8125 C 36.295963 124.55581 34.859665 125.42158 33.53125 126.75 C 31.8449 128.43636 31.334239 129.94255 31.875 131.71875 C 33.065093 135.62778 36.107647 138.50735 38.40625 137.90625 C 39.546337 137.60812 40.920689 138.14566 41.46875 139.125 C 42.829409 141.55636 50.203282 144.00033 52.4375 142.75 C 54.850222 141.39975 55.798901 143.28272 54.46875 146.78125 C 53.22286 150.05823 48.81293 153.41476 42.3125 156.125 C 39.828571 157.16065 38.062437 158.28119 38.375 158.59375 C 38.920961 159.13972 44.951206 156.66715 48.5625 154.4375 C 49.516988 153.84818 52.145446 152.38451 54.40625 151.15625 C 59.128533 148.59069 66.089637 141.8512 65.3125 140.59375 C 65.024068 140.12706 65.552524 139.09885 66.5 138.3125 C 67.447486 137.52618 68.21875 136.20491 68.21875 135.40625 C 68.218752 133.1059 71.484197 131.04007 73.71875 131.90625 C 75.659713 132.65863 75.645704 132.76836 73.71875 134.1875 C 71.954416 135.48687 70.828472 139.46875 72.21875 139.46875 C 74.782952 139.46876 78.767158 136.84772 78.25 135.5 C 77.129591 132.5803 82.320927 130.47362 84.1875 133.09375 C 85.640194 135.13292 90.634974 136.95283 96.71875 137.65625 C 99.97198 138.0324 105.14473 139.59998 108.21875 141.15625 C 112.01345 143.07738 114.22926 143.64433 115.15625 142.875 C 116.10931 142.08401 117.0927 142.58903 118.40625 144.59375 C 119.44123 146.1733 120.28125 147.82111 120.28125 148.21875 C 120.28125 149.39789 125.3709 153.2708 126.96875 153.3125 C 129.41942 153.37647 132.14052 161.04966 130.5 163.28125 C 129.92575 164.06239 130.72444 165.08578 132.59375 165.9375 C 135.57503 167.29585 135.6051 167.35018 133.5 169.875 C 132.32474 171.28455 132.0615 171.82812 132.9375 171.0625 C 135.14241 169.13545 139.49827 171.35581 137.71875 173.5 C 136.27283 175.2422 137.24683 176.5 140.03125 176.5 C 142.93948 176.5 152.6875 186.09973 152.6875 188.96875 C 152.68749 191.71536 150.90596 193.33174 149.8125 191.5625 C 148.20199 188.95661 147.49536 190.7142 147.375 197.59375 C 147.30542 201.57118 147.05939 207.9633 146.84375 211.78125 C 146.43429 219.03057 149.2725 227.57735 151.90625 227.0625 C 152.61327 226.92429 153.24871 227.94213 153.34375 229.3125 C 153.60769 233.11841 158.43687 240.14352 161.59375 241.34375 C 163.14643 241.93408 164.0777 242.97435 163.65625 243.65625 C 163.19676 244.39973 163.74404 244.75169 165.03125 244.53125 C 166.71075 244.24364 167.59933 245.53907 169.25 250.53125 C 170.40721 254.03103 172.36918 257.97233 173.59375 259.28125 C 175.20644 261.00507 175.47986 262.02014 174.5625 262.9375 C 173.64512 263.85487 174.27573 265.05904 176.875 267.375 C 178.84867 269.13357 180.49604 271.64219 180.53125 272.96875 C 180.60009 275.56266 186.98692 281.38808 188.3125 280.0625 C 188.75292 279.62211 188.20202 278.77647 187.09375 278.15625 C 185.98549 277.53602 185.09375 276.48401 185.09375 275.8125 C 185.09375 275.14102 183.53398 272.26607 181.625 269.4375 C 179.71603 266.60895 178.15448 263.91409 178.15625 263.46875 C 178.15803 263.0234 176.98426 260.49681 175.5625 257.8125 C 173.56501 254.04118 173.28064 252.59437 174.34375 251.53125 C 175.92701 249.94799 179.3125 252.03309 179.3125 254.59375 C 179.31251 255.40033 181.63654 259.26652 184.5 263.15625 C 187.36347 267.046 189.71875 270.605 189.71875 271.125 C 189.71875 271.64499 191.46522 274.12425 193.59375 276.625 C 198.72189 282.64991 200.14581 285.51568 199.40625 288.34375 C 198.61143 291.38314 202.33309 294.33225 214.90625 300.5625 C 222.9056 304.52634 224.98016 305.13653 226.75 304.03125 C 228.50023 302.93823 229.625 303.22975 233.0625 305.5625 C 238.51111 309.26001 245.93136 313 247.75 313 C 250.61382 313 255.65625 319.14821 255.65625 322.625 C 255.65625 325.48703 255.90551 325.81863 257.34375 324.625 C 258.74577 323.46141 259.27795 323.66692 260.3125 325.9375 C 261.10493 327.67668 262.71152 328.78173 264.59375 328.9375 C 266.23889 329.07365 268.17937 329.67799 268.90625 330.28125 C 269.79174 331.01617 270.66366 330.64556 271.59375 329.15625 C 274.69529 324.18988 279.95684 331.63943 279.78125 340.75 C 279.7029 344.81488 278.87389 346.934 275.875 350.59375 C 273.77214 353.16006 271.40429 357.78015 270.625 360.875 C 269.3455 365.95632 269.40108 366.63531 271.28125 367.6875 C 273.24924 368.78883 273.20554 368.95068 270.90625 370.71875 L 268.5 372.59375 L 272.3125 381.28125 C 274.42515 386.05368 277.4209 393.83161 278.9375 398.5625 C 281.27035 405.83962 282.37408 407.61409 286.09375 410.125 C 288.51194 411.75737 292.36426 414.76833 294.65625 416.84375 L 298.8125 420.625 L 297.375 440.5625 C 296.59035 451.53177 295.82712 463.37521 295.65625 466.875 C 295.45323 471.03315 294.26271 475.41518 292.1875 479.5 C 289.89571 484.01117 289.18542 486.70832 289.6875 489.21875 C 290.07013 491.13205 289.7604 494.42841 289 496.53125 C 287.91944 499.51945 287.91862 500.92105 289.03125 503 C 290.73127 506.17656 290.23126 518.39374 288.3125 520.3125 C 287.31497 521.31003 286.80331 521.14835 286.21875 519.625 C 285.60407 518.02319 285.21097 517.90482 284.4375 519.125 C 283.18842 521.09541 283.15934 522.72007 284.375 521.96875 C 285.70336 521.14773 291.80904 527.92163 290.96875 529.28125 C 290.58618 529.90028 289.61289 530.14362 288.75 529.8125 C 287.5347 529.3461 287.27307 530.4571 287.5625 534.75 C 287.76799 537.79804 287.31349 541.00777 286.59375 541.875 C 285.58551 543.08985 285.67959 543.36848 286.96875 543.09375 C 289.44224 542.56659 295.2316 546.79993 294.53125 548.625 C 293.44712 551.45022 295.74449 550.24255 297.09375 547.28125 C 297.81855 545.69046 298.94379 544.40625 299.59375 544.40625 C 300.24374 544.40628 300.78125 543.17968 300.78125 541.6875 C 300.78125 540.19529 301.8172 538.03027 303.09375 536.875 C 304.3703 535.71976 305.18258 534.49507 304.875 534.1875 C 304.5674 533.87996 305.93031 531.81296 307.90625 529.5625 C 311.40025 525.58307 311.42324 525.46706 309.0625 524.59375 C 304.39548 522.86734 304.83626 514.3125 309.59375 514.3125 C 310.60403 514.31252 311.1875 513.0188 311.1875 510.75 C 311.18749 508.13014 311.81776 506.97933 313.53125 506.53125 C 315.51376 506.01279 315.61233 505.72954 314.1875 504.625 C 313.2622 503.90764 312.32809 502.27265 312.125 501 C 311.82742 499.13533 312.40312 498.6875 315.09375 498.6875 C 318.30373 498.68753 319.56603 497.51054 320.875 493.25 C 321.29735 491.87527 323.32533 491.04549 327.4375 490.5 C 336.89366 489.24559 339.1251 485.06954 333.78125 478.71875 C 330.30489 474.58733 331.05646 473.35601 335.5 475.90625 C 338.54731 477.65519 339.06905 477.64523 342.78125 475.875 C 346.80505 473.95624 349.69694 469.99463 355.8125 457.8125 C 358.28706 452.88314 358.66318 451.10406 357.71875 449.03125 C 357.06715 447.60114 356.88077 445.8548 357.3125 445.15625 C 358.17043 443.7681 366.42041 437.96875 367.53125 437.96875 C 367.91007 437.96872 368.79352 437.18226 369.5 436.25 C 370.20646 435.31771 372.86084 434.371 375.375 434.125 C 379.77123 433.69487 380.02182 433.40045 383.09375 426.28125 C 385.69852 420.24466 386.30785 417.14292 386.34375 409.40625 C 386.37468 402.73879 386.84636 399.61896 387.9375 398.96875 C 388.79144 398.45988 391.39107 395.2246 393.71875 391.8125 C 399.30162 383.62858 399.61418 377.54982 394.5625 374.9375 C 392.69214 373.97032 390.49029 372.22015 389.65625 371.03125 C 388.54091 369.44133 386.24951 368.72039 381.03125 368.34375 C 374.94509 367.90445 373.38945 367.2957 370.21875 364.125 C 365.74972 359.65599 363.74466 359.51969 360.6875 363.40625 C 359.04224 365.49787 357.46858 366.24984 355.3125 366 C 351.63662 365.57404 351.67553 363.59209 355.375 362.71875 C 356.84096 362.37269 358.19718 361.21068 358.40625 360.125 C 358.96936 357.20108 356.88403 357.68584 352.46875 361.5625 C 350.31104 363.45699 348.22837 364.69711 347.84375 364.3125 C 346.62583 363.09458 354.04534 353.38373 355.53125 354.25 C 356.28709 354.69065 355.8664 353.85508 354.59375 352.40625 C 353.32109 350.95743 352.39997 349.47295 352.53125 349.0625 C 353.89197 344.80835 346.34746 338.46875 339.9375 338.46875 C 336.75069 338.46874 334.93691 337.51615 331.625 334.125 C 329.29452 331.73876 326.10836 328.54763 324.53125 327.03125 C 322.95415 325.51487 322.00674 323.74015 322.40625 323.09375 C 322.88464 322.31963 321.0874 322.1743 317.21875 322.6875 C 313.52699 323.17721 311.09739 323.01435 310.625 322.25 C 310.21164 321.58113 309.27867 321.13108 308.53125 321.25 C 306.22302 321.61723 300.79615 318.93156 300.71875 317.375 C 300.6784 316.56382 300.16923 317.06826 299.59375 318.5 C 299.01826 319.93171 298.06602 321.09375 297.46875 321.09375 C 296.8715 321.09373 296.62347 322.08041 296.9375 323.28125 C 297.76084 326.4297 295.34636 327.39728 293.8125 324.53125 C 292.79563 322.63122 292.92927 321.51898 294.375 319.3125 C 296.75429 315.68129 295.003 315.68351 291.59375 319.3125 C 290.14245 320.85734 288.2529 321.80563 287.375 321.46875 C 285.90707 320.90543 285.36351 321.81244 282.78125 329.09375 C 282.33928 330.34004 281.53888 330.06034 279.3125 327.96875 C 276.69962 325.51407 275.98792 325.38552 271.8125 326.5 C 267.40659 327.67601 267.04666 327.58542 264.1875 324.1875 C 261.43646 320.91807 261.23535 320.01721 261.90625 313.46875 C 262.62948 306.40973 262.63223 306.30307 259.46875 305.40625 C 257.70845 304.90722 254.41464 304.4873 252.1875 304.4375 C 248.39547 304.35271 248.17893 304.08119 248.53125 300.84375 C 248.73817 298.94233 249.31088 296.86263 249.8125 296.21875 C 250.31411 295.57485 251.05619 292.86063 251.46875 290.15625 C 252.13352 285.79848 251.96483 285.25 249.96875 285.25 C 244.88404 285.24999 241.93928 287.35492 241.5625 291.25 C 241.22329 294.75663 240.82522 295.09912 236.0625 295.90625 C 229.63301 296.99583 226.55421 295.20958 223.3125 288.5 C 221.03461 283.78535 220.0893 273.7857 221.78125 272.09375 C 222.23962 271.6354 222.46348 269.49012 222.28125 267.375 C 221.99201 264.01784 222.50677 263.21514 226.34375 260.84375 C 231.54759 257.62763 232.83938 257.34389 236.9375 258.625 C 238.64056 259.15741 241.79185 259.87771 243.9375 260.25 C 247.42378 260.85489 247.66068 260.75588 246.28125 259.09375 C 244.96831 257.51174 245.10024 256.976 247.03125 255.5625 C 248.48807 254.49608 250.33144 254.18724 252.1875 254.71875 C 253.77832 255.17429 256.46001 255.48542 258.15625 255.40625 C 261.67344 255.24207 264.72702 258.93122 265.3125 264.09375 C 265.76204 268.05774 268.45095 272.5 270.40625 272.5 C 272.37413 272.5 272.23655 270.99117 269.53125 261.53125 C 268.25859 257.08101 267.21875 252.72785 267.21875 251.875 C 267.21874 251.02215 270.00085 247.52645 273.40625 244.09375 C 276.81167 240.66104 279.37736 237.56485 279.0625 237.25 C 278.74763 236.93514 279.30184 236.36857 280.34375 235.96875 C 281.38563 235.56896 281.98115 234.83819 281.65625 234.3125 C 281.33135 233.78683 281.63282 232.9945 282.28125 232.59375 C 283.07683 232.10207 283.0185 231.11521 282.1875 229.5625 C 280.7559 226.88745 281.19486 221.03125 282.8125 221.03125 C 283.42013 221.03124 284.24499 222.31543 284.6875 223.90625 C 285.34567 226.27233 285.53066 226.37854 285.625 224.46875 C 285.80071 220.91162 291.34201 213.5 293.8125 213.5 C 298.14538 213.49998 299.64177 212.30986 298.21875 210.03125 C 297.19382 208.39009 297.33398 207.28939 298.875 204.9375 C 299.95821 203.28427 301.63278 201.9375 302.59375 201.9375 C 303.55471 201.93749 306.77986 200.69519 309.78125 199.1875 C 313.5137 197.3126 315.97987 196.74268 317.5625 197.375 C 318.8974 197.90837 319.19864 198.35934 318.25 198.40625 C 315.94876 198.52007 312.34375 201.95623 312.34375 204.0625 C 312.34375 205.46588 312.85922 205.35888 314.9375 203.5 C 316.36923 202.21941 319.22767 200.48507 321.25 199.6875 C 323.27232 198.88992 325.23437 197.49906 325.59375 196.5625 C 325.95314 195.62594 326.73417 195.16646 327.375 195.5625 C 328.0158 195.95856 328.5625 195.81783 328.5625 195.25 C 328.5625 192.89737 327.07876 193.07748 324.375 195.78125 C 322.06451 198.09177 321.19097 198.39935 319.84375 197.28125 C 318.92304 196.51713 318.53545 195.2858 318.96875 194.5625 C 319.5565 193.58135 319.30713 193.58081 318.0625 194.5625 C 316.74711 195.59997 315.74326 195.21594 313.28125 192.6875 C 310.01838 189.33661 310.11857 188.0625 313.6875 188.0625 C 314.87723 188.0625 315.8125 187.24582 315.8125 186.1875 C 315.81251 183.25959 308.05663 184.98588 304.0625 188.8125 C 301.7501 191.0279 300.41799 191.63674 299.5625 190.78125 C 297.87217 189.09089 307.77027 180.47719 312.5 179.53125 C 314.48952 179.13334 318.66858 178.8125 321.8125 178.8125 C 324.95642 178.81249 328.67261 178.18432 330.0625 177.4375 C 331.45241 176.69066 334.15353 175.76783 336.0625 175.375 C 339.07201 174.75571 339.53125 174.14823 339.53125 170.84375 C 339.53124 165.75763 338.07648 164.83244 332.875 166.625 C 329.92868 167.64037 328.28365 167.7504 327.78125 166.9375 C 326.84146 165.41684 330.55081 162.62028 333.6875 162.5 C 335.37162 162.43541 335.57075 162.24229 334.34375 161.78125 C 333.38928 161.42257 331.25639 160.16312 329.59375 159 C 327.93111 157.83685 326.28796 157.14954 325.96875 157.46875 C 325.64952 157.78798 324.55536 156.73566 323.5 155.125 C 322.44465 153.51433 321.93125 152.1875 322.375 152.1875 C 322.81876 152.18749 322.003 150.96883 320.59375 149.46875 C 319.18451 147.96865 317.76318 145.26479 317.4375 143.46875 C 316.49259 138.25788 315.84759 138.03258 312.375 141.75 C 310.41696 143.84609 308.40779 144.99007 307.375 144.59375 C 306.4249 144.22916 305.29344 144.5224 304.84375 145.25 C 304.28859 146.14826 303.22346 145.72032 301.5625 143.9375 C 298.83367 141.00844 298.13052 138.63783 299.71875 137.65625 C 301.34698 136.64995 300.97638 133.6875 299.21875 133.6875 C 298.35718 133.6875 296.15532 132.27021 294.3125 130.53125 C 291.70708 128.07268 289.72119 127.28829 285.40625 127.15625 C 280.22016 126.99754 279.73347 127.27227 278.3125 130.65625 C 277.30541 133.05455 277.19371 134.9537 277.90625 136.34375 C 278.62038 137.73691 278.47787 139.02205 277.5625 140.125 C 276.80409 141.03884 276.5885 141.78125 277.0625 141.78125 C 277.53649 141.78126 277.34251 142.47921 276.625 143.34375 C 275.62901 144.54387 275.88505 145.62329 277.65625 147.875 C 280.5099 151.50281 280.59198 155.38912 277.9375 159.15625 C 276.63392 161.00624 275.85404 164.4718 275.75 168.90625 C 275.63113 173.9734 275.09186 176.12331 273.59375 177.21875 C 271.84133 178.50012 270.91968 178.14583 266.96875 174.4375 C 262.79556 170.52054 262.46411 169.71217 262.9375 165.34375 L 263.4375 160.53125 L 258.3125 159.96875 C 254.95561 159.59035 251.00301 157.92501 246.9375 155.125 C 243.51618 152.76866 240.21667 151.14627 239.59375 151.53125 C 238.19131 152.39801 236.6512 150.05734 236.59375 146.96875 C 236.56163 145.24075 235.91228 144.76099 233.96875 145.03125 C 232.06349 145.29621 231.07206 144.59966 230.25 142.4375 C 228.63553 138.19116 229.96129 135.40468 237.4375 127.5625 C 239.19191 125.72223 240.3405 123.76968 240 123.21875 C 239.1547 121.851 243.54406 119.66295 245.5625 120.4375 C 246.4582 120.78122 248.43215 120.03446 249.96875 118.78125 C 253.00522 116.30479 253.16798 116.49286 246.5 114.4375 C 243.4437 113.4954 247.11361 111.5168 251.1875 111.90625 C 254.78992 112.25063 255.10593 112.61629 255.4375 116.625 C 255.69836 119.77858 255.31266 121.17179 253.96875 121.6875 C 252.49303 122.25379 252.77225 122.74954 255.34375 124.09375 C 258.38478 125.68338 258.68752 125.6112 260.75 122.875 C 262.79463 120.16246 263.09464 120.08128 265.59375 121.71875 C 267.0658 122.68327 268.81464 123.13495 269.4375 122.75 C 271.27157 121.61647 265.5723 116.37695 261.65625 115.59375 C 259.68389 115.19928 257.27465 113.64112 256.28125 112.125 C 254.39633 109.24824 254.62879 108.98289 258.78125 109.3125 C 261.52299 109.53015 268.375 106.40269 268.375 104.9375 C 268.375 104.43914 267.65188 103.01464 266.75 101.78125 C 265.56916 100.16635 265.4871 99.13235 266.375 98.0625 C 268.0284 96.070258 264.3104 93.26833 259.96875 93.21875 C 257.21822 93.187367 256.92216 93.50083 257.875 95.28125 C 258.72603 96.871378 258.23149 98.287566 255.9375 101.21875 C 253.1181 104.82129 252.87797 104.90745 251.4375 102.9375 C 250.59196 101.78113 249.875 99.70379 249.875 98.3125 C 249.875 96.921233 249.13068 95.16307 248.21875 94.40625 C 246.88262 93.29737 246.18786 93.61477 244.625 96 C 242.53613 99.188009 240.625 98.97216 240.625 95.5625 C 240.62501 94.37136 239.53819 93.1508 238.125 92.78125 C 236.17154 92.270401 235.92302 91.81612 236.9375 90.59375 C 238.73186 88.431693 234.49145 83.70592 231.4375 83.625 z M 247.5625 179.96875 C 248.19882 179.96876 248.71875 180.48866 248.71875 181.125 C 248.71874 181.76132 248.19882 182.28124 247.5625 182.28125 C 246.92617 182.28125 246.40625 181.76131 246.40625 181.125 C 246.40625 180.48867 246.92617 179.96873 247.5625 179.96875 z M 249.90625 186.28125 C 250.03047 186.27176 250.15098 186.27219 250.28125 186.28125 C 250.90656 186.32473 251.60376 186.56318 252.5625 187 C 254.21195 187.75152 256.33043 190.05544 257.3125 192.125 C 258.80702 195.27446 260.00658 196.07436 264.53125 196.90625 C 267.50451 197.45289 270.13516 198.55969 270.40625 199.375 C 270.67734 200.19029 270.2572 200.71021 269.4375 200.53125 C 268.58477 200.34508 267.64526 201.70158 267.25 203.6875 C 266.56009 207.15403 266.54816 207.13226 265.09375 204.5 C 264.29282 203.05045 263.23255 202.13189 262.6875 202.46875 C 262.14243 202.80562 261.93121 202.09407 262.25 200.875 C 262.62553 199.43901 261.99317 198.20537 260.5 197.40625 C 258.5671 196.3718 257.88648 196.7256 256.125 199.375 C 254.96984 201.11247 253.7195 204.85528 253.375 207.71875 C 252.97799 211.0188 252.4127 212.37078 251.8125 211.4375 C 251.29168 210.62771 251.03666 208.54839 251.21875 206.8125 C 251.40084 205.07662 251.20988 203.1742 250.8125 202.53125 C 249.80438 200.90006 252.3825 197.65315 255.125 197.125 C 261.70463 195.85787 251.47312 191.47512 243.75 192.25 C 239.45806 192.68062 239.2286 192.60626 241.78125 191.5 C 243.37175 190.8107 245.78223 189.19896 247.125 187.9375 C 248.26323 186.86819 249.03669 186.34769 249.90625 186.28125 z M 272.25 194.3125 C 272.74615 194.23657 273.25187 194.42294 273.53125 194.875 C 273.90377 195.47774 273.72774 196.28374 273.125 196.65625 C 272.52226 197.02876 271.71626 196.85274 271.34375 196.25 C 270.97122 195.64727 271.14726 194.8725 271.75 194.5 C 271.90068 194.40687 272.08462 194.33782 272.25 194.3125 z M 282.125 203.28125 C 282.26061 203.26607 282.34769 203.2657 282.4375 203.28125 C 282.67696 203.3227 282.75521 203.49216 282.65625 203.75 C 282.31303 204.64439 280.31245 205.8195 278.1875 206.40625 C 276.06254 206.99298 272.54198 208.84716 270.375 210.5 C 268.20804 212.15284 265.75865 213.49998 264.9375 213.5 C 262.69898 213.5 268.04979 209.81502 276.125 205.75 C 279.10576 204.24949 281.17565 203.38752 282.125 203.28125 z "
       id="path3554" />
    <path
       style="fill:#9acbff;fill-opacity:1"
       d="M 125.50143,95.534786 C 124.8651,95.534786 123.56353,96.038746 122.60904,96.655586 C 121.65455,97.272446 121.39424,97.776386 122.03057,97.776386 C 122.66689,97.776386 123.96846,97.272426 124.92295,96.655586 C 125.87744,96.038756 126.13775,95.534786 125.50143,95.534786 z "
       id="path3530" />
    <path
       style="fill:#ff0000;fill-opacity:1;stroke:#000000;stroke-opacity:1"
       d="M 455.1973,108.55053 C 454.36332,108.54846 453.16341,108.68709 451.47335,108.94823 C 448.4508,109.41526 445.04422,109.70655 443.917,109.63518 C 442.78966,109.56381 442.14431,109.93852 442.4708,110.46674 C 443.36618,111.91548 437.81649,115.15595 434.15519,115.31148 L 430.93741,115.4561 L 434.40828,116.1792 C 436.31724,116.5874 437.61882,117.38484 437.30066,117.95079 C 436.63297,119.13832 440.23007,120.76051 443.80853,120.87933 C 445.15545,120.92405 449.06018,119.82232 452.48569,118.4208 C 459.43955,115.57572 461.16603,113.92545 458.66817,112.52756 C 457.7426,112.00955 456.96889,110.77781 456.96889,109.81595 C 456.96889,108.91958 456.58727,108.55399 455.1973,108.55053 z "
       id="path3518" />
    <path
       style="fill:#00696b;fill-opacity:1;stroke:#000000;stroke-opacity:1"
       d="M 872.89403,395.43909 C 872.56363,395.49382 872.53074,395.71377 872.78556,396.12603 C 873.20366,396.80259 872.22189,398.21946 870.61627,399.2715 C 869.01064,400.32357 867.96054,401.59696 868.26621,402.09158 C 868.57199,402.58621 868.0284,403.64879 867.0731,404.44164 C 865.81638,405.48461 865.67885,406.26403 866.56693,407.33403 C 867.24201,408.14744 867.40046,409.08121 866.89232,409.39485 C 865.05632,410.52812 857.97984,409.29405 857.34745,407.73173 C 856.44193,405.4943 853.80428,405.20353 853.80428,407.33403 C 853.80427,408.30217 852.56084,409.66915 851.02036,410.37103 C 849.433,411.09428 848.44474,412.28443 848.77876,413.15495 C 849.1029,413.99976 848.99736,415.32031 848.52567,416.08349 C 847.90598,417.08615 847.22971,416.90077 846.1033,415.3604 C 844.59856,413.30254 844.53638,413.301 844.40402,415.46886 C 844.32862,416.70404 844.34739,418.3346 844.44018,419.08435 C 844.61728,420.51468 837.61027,426.38762 835.72686,426.38762 C 834.58899,426.38761 829.28644,429.05687 822.85574,432.85934 C 818.62512,435.36088 817.87783,439.30646 820.97569,442.7296 C 822.11481,443.98829 822.54707,445.63172 822.06034,446.88741 C 821.30368,448.83979 821.16243,448.82712 819.60181,446.70663 C 818.64666,445.40874 817.93869,445.08702 817.93869,445.94738 C 817.93868,446.76616 819.02304,448.98537 820.36106,450.86444 C 823.06228,454.65793 826.52277,469.2562 825.71198,473.49736 C 825.31036,475.59833 825.96257,476.61565 828.53205,477.94441 C 831.64855,479.556 832.12862,479.49114 836.16072,476.7513 C 838.56245,475.11926 842.11233,473.82275 844.18709,473.82275 C 846.55271,473.82278 849.03618,472.76917 851.02036,470.93037 C 852.73682,469.33958 855.48261,468.03798 857.09437,468.03798 C 858.7061,468.03801 861.61187,467.47741 863.56608,466.80872 C 868.90864,464.9805 877.90711,468.594 880.34192,473.53352 C 881.34847,475.57556 882.44098,477.24301 882.80045,477.25746 C 883.15978,477.27194 884.36939,475.38379 885.47591,473.0635 C 886.95992,469.95139 887.8107,469.1797 888.766,470.13496 C 889.72117,471.0902 889.73095,472.24036 888.72984,474.43739 C 886.95218,478.33892 886.99539,479.01549 888.98292,477.36593 C 890.17379,476.37761 890.82358,476.38865 891.4053,477.32977 C 891.84377,478.03932 891.91401,478.91801 891.54992,479.28213 C 891.18571,479.64629 892.18237,481.46199 893.75536,483.33147 C 895.3285,485.20099 896.61159,487.46953 896.61159,488.357 C 896.61158,490.87888 903.73357,492.37054 906.08416,490.34551 C 907.78236,488.88259 908.26976,488.9629 910.1335,490.9963 C 912.8615,493.97257 912.66798,493.98549 915.30364,490.63475 C 916.62832,488.95071 918.54942,487.87643 919.96761,488.0316 C 921.62253,488.21267 922.47687,487.55663 922.67922,485.97078 C 923.05157,483.05201 925.19068,476.91175 927.92167,470.93037 C 930.64814,464.95892 933.54366,441.15374 931.46485,441.75342 C 930.37051,442.06914 924.3785,437.81862 924.3785,436.7279 C 924.37849,436.19755 923.10117,434.38221 921.52227,432.67856 C 919.9434,430.97489 918.89286,429.13968 919.20836,428.62922 C 919.52385,428.11877 918.72932,427.37633 917.43677,426.9661 C 914.25782,425.95712 910.49505,418.2339 910.49505,412.7211 C 910.49504,409.73952 909.74499,407.56299 908.25345,406.21323 C 907.01692,405.09412 905.64556,402.53899 905.21644,400.53692 C 904.78748,398.53484 904.1639,396.4018 903.8064,395.80064 C 902.93393,394.33344 900.29684,401.79174 900.15477,406.14092 C 900.04037,409.64058 896.1458,419.44589 894.87616,419.44589 C 894.49972,419.44588 891.33825,417.34047 887.82597,414.74577 C 881.85759,410.33669 881.46376,409.78803 882.18582,406.35785 C 882.61075,404.33918 883.42434,402.18992 883.99356,401.58541 C 885.36398,400.13021 885.33487,397.15476 883.9574,398.00608 C 883.36504,398.37219 882.59659,398.17844 882.22197,397.57222 C 881.84726,396.96601 880.61132,396.52746 879.51036,396.59604 C 878.4093,396.66462 876.28552,396.29604 874.77408,395.80064 C 873.85308,395.49875 873.22442,395.38435 872.89403,395.43909 z "
       id="path3066" />
    <path
       style="fill:#9acbff;fill-opacity:1"
       d="M 75.57161,416.44504 C 75.406223,416.47036 75.216124,416.53268 75.065442,416.62582 C 74.462703,416.99832 74.295223,417.79468 74.667739,418.3974 C 75.040244,419.00014 75.836587,419.16762 76.439325,418.79511 C 77.042064,418.4226 77.209545,417.62626 76.837029,417.02352 C 76.557647,416.57146 76.06777,416.36911 75.57161,416.44504 z "
       id="path3042" />
    <path
       style="fill:#9acbff;fill-opacity:1"
       d="M 79.042473,418.75895 C 78.877086,418.78427 78.686987,418.84659 78.536305,418.93973 C 77.933567,419.31223 77.766098,420.10859 78.138602,420.71131 C 78.511107,421.31405 79.30745,421.48153 79.910189,421.10902 C 80.512927,420.73651 80.680408,419.94017 80.307892,419.33743 C 80.028511,418.88537 79.538633,418.68302 79.042473,418.75895 z "
       id="path3038" />
    <path
       style="fill:#9acbff;fill-opacity:1"
       d="M 111.4372,426.85763 C 111.27181,426.88295 111.08171,426.94527 110.93103,427.03841 C 110.32829,427.41091 110.16083,428.20727 110.53333,428.80999 C 110.90583,429.41273 111.70218,429.58021 112.30492,429.2077 C 112.90766,428.83519 113.07514,428.03885 112.70262,427.43611 C 112.42324,426.98405 111.93336,426.7817 111.4372,426.85763 z "
       id="path3034" />
    <path
       style="fill:#9acbff;fill-opacity:1"
       d="M 99.867654,429.17154 C 99.702267,429.19686 99.512168,429.25918 99.361486,429.35232 C 98.758748,429.72482 98.591278,430.52118 98.963783,431.1239 C 99.336288,431.72664 100.13263,431.89412 100.73537,431.52161 C 101.33811,431.1491 101.50559,430.35276 101.13307,429.75002 C 100.85369,429.29796 100.36381,429.09561 99.867654,429.17154 z "
       id="path3024" />
    <path
       style="fill:#9acbff;fill-opacity:1"
       d="M 118.37893,433.79936 C 118.21354,433.82467 118.02344,433.887 117.87276,433.98013 C 117.27002,434.35264 117.10255,435.14899 117.47506,435.75172 C 117.84756,436.35446 118.6439,436.52194 119.24664,436.14942 C 119.84938,435.77692 120.01686,434.98058 119.64435,434.37784 C 119.36497,433.92578 118.87509,433.72343 118.37893,433.79936 z "
       id="path3022" />
    <path
       style="fill:#9acbff;fill-opacity:1"
       d="M 134.57629,438.42718 C 134.4109,438.45249 134.2208,438.51482 134.07012,438.60795 C 133.46738,438.98046 133.29992,439.77681 133.67242,440.37954 C 134.04492,440.98228 134.84127,441.14976 135.44401,440.77724 C 136.04674,440.40474 136.21423,439.60839 135.84171,439.00566 C 135.56233,438.5536 135.07245,438.35125 134.57629,438.42718 z "
       id="path3020" />
    <path
       style="fill:#9acbff;fill-opacity:1"
       d="M 144.98888,440.74109 C 144.82349,440.7664 144.63339,440.82873 144.48271,440.92186 C 143.87997,441.29437 143.71251,442.09072 144.08501,442.69345 C 144.45751,443.29619 145.25386,443.46367 145.8566,443.09115 C 146.45934,442.71865 146.62682,441.9223 146.2543,441.31956 C 145.97492,440.86751 145.48504,440.66516 144.98888,440.74109 z "
       id="path3018" />
    <path
       style="fill:#9acbff;fill-opacity:1"
       d="M 885.43975,480.07754 C 885.27438,480.10284 885.08424,480.16519 884.93358,480.25831 C 884.33081,480.63082 884.16334,481.42714 884.53588,482.0299 C 884.9083,482.63264 885.70471,482.80015 886.30747,482.4276 C 886.91012,482.0551 887.0777,481.25876 886.70517,480.65602 C 886.42577,480.20396 885.93588,480.00162 885.43975,480.07754 z "
       id="path3008" />
    <path
       style="fill:#000000;fill-opacity:1"
       d="M 589.34375,252.3125 C 578.93387,252.31766 564.41523,241.58662 558.59222,247.43988 C 549.9953,256.08145 542.77235,247.64337 534.28125,245.90625 C 523.26573,243.65269 535.21221,227.01241 518.75,230.96875 C 508.63373,233.39997 497.92937,238.71886 488.32378,237.58741 C 479.92188,236.59775 477.00077,240.33968 473.53932,246.0493 C 469.35909,252.94452 467.58734,261.49265 460.99606,268.08284 C 453.82241,275.25531 451.55804,283.96526 452.22266,294.79855 C 452.8298,304.69484 449.30459,312.22689 456.79939,320.78396 C 463.42941,328.35368 466.09802,342.84692 479.21912,342.40399 C 489.96624,342.04119 502.96441,333.76209 510.81994,338.40288 C 516.45707,341.73311 521.72645,339.97762 524.65288,344.12485 C 529.90863,351.57309 523.30403,364.29976 530.80382,373.37157 C 536.77069,380.58914 540.95906,392.58265 535.5493,402.19294 C 529.39672,413.12282 537.01055,423.17699 538.34247,433.95179 C 539.86683,446.2833 551.03207,457.40535 550.39479,468.15856 C 549.79161,478.3364 560.66175,475.97555 567.52432,474.86072 C 579.47217,472.91977 587.66782,462.19295 590.40724,451.60886 C 592.84532,442.18902 595.91616,435.36977 596.78534,425.06878 C 597.54283,416.09157 618.05236,410.35452 612.72777,396.30095 C 608.78497,385.89442 606.67704,374.22882 614.97795,364.6012 C 622.69582,355.6498 632.56619,348.63569 637.30847,337.15732 C 639.47472,331.91408 646.03144,319.19369 644.72622,319.21582 C 638.33093,319.32425 623.96368,326.08885 619.36227,315.2494 C 614.88545,304.70342 604.17216,297.73981 603.44731,285.54218 C 602.86674,275.77259 589.99135,265.41907 591.56223,258.72897 C 592.1728,256.12864 594.45207,259.93971 592.27004,255.4138 C 591.75535,254.34624 591.52208,254.78019 590.79051,254.00486 C 590.05894,253.22954 597.42989,252.30849 589.34375,252.3125 z "
       id="path3784"
       sodipodi:nodetypes="cssssssssssssssssssssssssssss" />
    <path
       style="fill:#ffff00;fill-rule:evenodd;stroke:#000000;stroke-width:1px;stroke-linecap:butt;stroke-linejoin:miter;stroke-opacity:1;opacity:1;fill-opacity:1"
       d="M 569.9375 86.09375 C 568.62111 86.136058 567.29077 86.968534 566 89.5625 C 559.37019 89.119941 556.02198 93.866631 548.15625 95.8125 C 545.83238 104.42572 534.88642 108.65528 529.03125 114.5 C 537.46151 126.73318 507.15714 122.39036 516.84375 141.1875 C 521.23354 150.94304 534.69425 129.70598 534.5 150.46875 C 540.05014 165.20561 557.07862 141.39768 548.96875 133.71875 C 551.16125 124.75756 561.47146 109.90597 570.34375 112.28125 C 566.28416 118.7766 551.47995 143.40777 572.8125 135.21875 C 591.28625 133.75004 578.59236 142.60985 567.5625 141.21875 C 570.20278 150.80716 567.517 150.74555 560.53125 151.625 C 559.13665 164.78645 532.91558 168.78642 527.03125 158.03125 C 525.49171 141.76678 528.38824 172.56258 516.15625 167.625 C 508.81976 174.38082 498.48153 184.77345 487.84375 186.09375 C 496.47099 191.06983 500.53059 213.98102 481.59375 206.09375 C 462.93207 206.20286 476.04496 243.54428 493.5 228.3125 C 500.94928 217.01911 516.74295 193.07507 531.21875 209.5625 C 541.23653 211.29046 547.59389 235.64785 547.75 217.5 C 553.25997 222.70341 520.9426 191.55129 540.3125 199.46875 C 550.90117 205.58345 561.87268 230.78556 564.09375 224 C 563.09073 228.60529 558.85956 233.77446 567.875 226.03125 C 555.31214 212.59243 586.23957 220.51232 580.375 203.40625 C 586.34768 189.40643 592.64251 195.55082 599.25 200.25 C 594.81209 195.6524 601.0881 192.21268 605.21875 192.59375 L 609 164.75 L 613.1875 133.875 L 616.03125 112.875 C 612.12084 115.43961 608.03482 117.27207 604.25 115.46875 C 612.10492 131.68534 579.1187 97.58913 601.59375 108.53125 C 631.22788 111.21153 597.17261 88.559314 584.96875 92.84375 C 581.97531 89.629421 587.45578 88.01168 577.75 86.65625 C 575.64987 89.686775 572.83355 86.000671 569.9375 86.09375 z "
       id="path4757" />
    <path
       style="fill:#00b800;fill-rule:evenodd;stroke:#000000;stroke-width:1px;stroke-linecap:butt;stroke-linejoin:miter;stroke-opacity:1;fill-opacity:1"
       d="M 295.15625 316.59375 C 294.58968 316.59403 293.29837 317.49801 291.59375 319.3125 C 290.14245 320.85734 288.2529 321.80563 287.375 321.46875 C 285.90707 320.90543 285.36351 321.81244 282.78125 329.09375 C 282.33928 330.34004 281.53888 330.06034 279.3125 327.96875 C 276.69962 325.51407 275.98792 325.38552 271.8125 326.5 C 268.54939 327.37098 267.51472 327.53507 266.03125 326.1875 L 263.96875 328.84375 C 264.17509 328.88562 264.37947 328.91977 264.59375 328.9375 C 266.23889 329.07365 268.17937 329.67799 268.90625 330.28125 C 269.79174 331.01617 270.66366 330.64556 271.59375 329.15625 C 274.69529 324.18988 279.95684 331.63943 279.78125 340.75 C 279.7029 344.81488 278.87389 346.934 275.875 350.59375 C 273.77214 353.16006 271.40429 357.78015 270.625 360.875 C 269.3455 365.95632 269.40108 366.63531 271.28125 367.6875 C 273.24924 368.78883 273.20554 368.95068 270.90625 370.71875 L 268.5 372.59375 L 272.3125 381.28125 C 274.42515 386.05368 277.4209 393.83161 278.9375 398.5625 C 281.27035 405.83962 282.37408 407.61409 286.09375 410.125 C 288.51194 411.75737 292.36426 414.76833 294.65625 416.84375 L 298.8125 420.625 L 297.375 440.5625 C 296.59035 451.53177 295.82712 463.37521 295.65625 466.875 C 295.45323 471.03315 294.26271 475.41518 292.1875 479.5 C 289.89571 484.01117 289.18542 486.70832 289.6875 489.21875 C 290.07013 491.13205 289.7604 494.42841 289 496.53125 C 287.91944 499.51945 287.91862 500.92105 289.03125 503 C 290.73127 506.17656 290.23126 518.39374 288.3125 520.3125 C 287.31497 521.31003 286.80331 521.14835 286.21875 519.625 C 285.60407 518.02319 285.21097 517.90482 284.4375 519.125 C 283.18842 521.09541 283.15934 522.72007 284.375 521.96875 C 285.70336 521.14773 291.80904 527.92163 290.96875 529.28125 C 290.58618 529.90028 289.61289 530.14362 288.75 529.8125 C 287.5347 529.3461 287.27307 530.4571 287.5625 534.75 C 287.76799 537.79804 287.31349 541.00777 286.59375 541.875 C 285.58551 543.08985 285.67959 543.36848 286.96875 543.09375 C 289.44224 542.56659 295.2316 546.79993 294.53125 548.625 C 293.44712 551.45022 295.74449 550.24255 297.09375 547.28125 C 297.81855 545.69046 298.94379 544.40625 299.59375 544.40625 C 300.24374 544.40628 300.78125 543.17968 300.78125 541.6875 C 300.78125 540.19529 301.8172 538.03027 303.09375 536.875 C 304.3703 535.71976 305.18258 534.49507 304.875 534.1875 C 304.5674 533.87996 305.93031 531.81296 307.90625 529.5625 C 311.40025 525.58307 311.42324 525.46706 309.0625 524.59375 C 304.39548 522.86734 304.83626 514.3125 309.59375 514.3125 C 310.60403 514.31252 311.1875 513.0188 311.1875 510.75 C 311.18749 508.13014 311.81776 506.97933 313.53125 506.53125 C 315.51376 506.01279 315.61233 505.72954 314.1875 504.625 C 313.2622 503.90764 312.32809 502.27265 312.125 501 C 311.82742 499.13533 312.40312 498.6875 315.09375 498.6875 C 318.30373 498.68753 319.56603 497.51054 320.875 493.25 C 321.29735 491.87527 323.32533 491.04549 327.4375 490.5 C 336.89366 489.24559 339.1251 485.06954 333.78125 478.71875 C 330.30489 474.58733 331.05646 473.35601 335.5 475.90625 C 338.54731 477.65519 339.06905 477.64523 342.78125 475.875 C 346.80505 473.95624 349.69694 469.99463 355.8125 457.8125 C 358.28706 452.88314 358.66318 451.10406 357.71875 449.03125 C 357.06715 447.60114 356.88077 445.8548 357.3125 445.15625 C 358.17043 443.7681 366.42041 437.96875 367.53125 437.96875 C 367.91007 437.96872 368.79352 437.18226 369.5 436.25 C 370.20646 435.31771 372.86084 434.371 375.375 434.125 C 379.77123 433.69487 380.02182 433.40045 383.09375 426.28125 C 385.69852 420.24466 386.30785 417.14292 386.34375 409.40625 C 386.37468 402.73879 386.84636 399.61896 387.9375 398.96875 C 388.79144 398.45988 391.39107 395.2246 393.71875 391.8125 C 399.30162 383.62858 399.61418 377.54982 394.5625 374.9375 C 392.69214 373.97032 390.49029 372.22015 389.65625 371.03125 C 388.54091 369.44133 386.24951 368.72039 381.03125 368.34375 C 374.94509 367.90445 373.38945 367.2957 370.21875 364.125 C 365.74972 359.65599 363.74466 359.51969 360.6875 363.40625 C 359.04224 365.49787 357.46858 366.24984 355.3125 366 C 351.63662 365.57404 351.67553 363.59209 355.375 362.71875 C 356.84096 362.37269 358.19718 361.21068 358.40625 360.125 C 358.96936 357.20108 356.88403 357.68584 352.46875 361.5625 C 350.31104 363.45699 348.22837 364.69711 347.84375 364.3125 C 346.62583 363.09458 354.04534 353.38373 355.53125 354.25 C 356.28709 354.69065 355.8664 353.85508 354.59375 352.40625 C 353.32109 350.95743 352.39997 349.47295 352.53125 349.0625 C 353.89197 344.80835 346.34746 338.46875 339.9375 338.46875 C 336.75069 338.46874 334.93691 337.51615 331.625 334.125 C 329.29452 331.73876 326.10836 328.54763 324.53125 327.03125 C 322.95415 325.51487 322.00674 323.74015 322.40625 323.09375 C 322.88464 322.31963 321.0874 322.1743 317.21875 322.6875 C 313.52699 323.17721 311.09739 323.01435 310.625 322.25 C 310.21164 321.58113 309.27867 321.13108 308.53125 321.25 C 306.22302 321.61723 300.79615 318.93156 300.71875 317.375 C 300.6784 316.56382 300.16923 317.06826 299.59375 318.5 C 299.01826 319.93171 298.06602 321.09375 297.46875 321.09375 C 296.8715 321.09373 296.62347 322.08041 296.9375 323.28125 C 297.76084 326.4297 295.34636 327.39728 293.8125 324.53125 C 292.79563 322.63122 292.92927 321.51898 294.375 319.3125 C 295.56465 317.49689 295.72282 316.59347 295.15625 316.59375 z "
       id="path5731" />
  </g>
</svg>
